<svg version="1.1" id="Layer_1" xmlns="http://www.w3.org/2000/svg" xmlns:xlink="http://www.w3.org/1999/xlink" x="0px" y="0px"
	 width="100%" viewBox="0 0 520 214" enable-background="new 0 0 520 214" xml:space="preserve">
<path fill="#FFFEFF" opacity="1.000000" stroke="none" 
	d="
M366.000000,215.000000 
	C244.041367,215.000000 122.582748,215.000000 1.062060,215.000000 
	C1.062060,143.732376 1.062060,72.464684 1.062060,1.098496 
	C174.333313,1.098496 347.666656,1.098496 520.973511,1.098496 
	C520.973511,72.417183 520.973511,143.708603 520.973511,215.000000 
	C469.464722,215.000000 417.982361,215.000000 366.000000,215.000000 
M201.652832,107.726181 
	C206.970963,107.726181 212.289093,107.726181 217.260483,107.726181 
	C215.050888,104.996742 211.506226,102.628220 211.446655,100.175064 
	C211.252548,92.182114 212.331329,84.158249 212.920334,76.146278 
	C213.362381,76.072578 213.804428,75.998878 214.246490,75.925179 
	C214.855957,76.966003 215.551895,77.966347 216.061172,79.054077 
	C220.011337,87.490921 223.878677,95.967018 227.898117,104.370468 
	C228.547043,105.727196 229.823196,106.783943 230.809402,107.979347 
	C231.670547,106.725685 232.758484,105.571098 233.356445,104.202454 
	C237.586853,94.519890 241.716736,84.793411 246.259888,74.191345 
	C247.192413,76.026230 247.893600,76.805145 247.963287,77.636971 
	C248.588562,85.099556 249.284195,92.566147 249.502899,100.044884 
	C249.548935,101.618950 247.924011,103.428192 246.693329,104.789368 
	C245.838547,105.734795 244.340485,106.098625 243.129822,106.722290 
	C243.222214,107.021461 243.314621,107.320625 243.407013,107.619797 
	C250.301880,107.619797 257.196747,107.619797 264.594482,107.619797 
	C257.416382,101.835197 257.389404,101.838058 256.518829,93.637451 
	C256.009338,88.838264 255.467468,84.036156 255.183792,79.221008 
	C254.840897,73.400360 252.217575,66.693504 260.463470,63.366840 
	C255.987411,63.366840 251.511353,63.366840 247.867554,63.366840 
	C242.976807,75.038757 238.272659,86.265320 233.568527,97.491875 
	C233.128006,97.482048 232.687469,97.472214 232.246948,97.462387 
	C227.206665,86.153168 222.166382,74.843948 217.126495,63.535614 
	C213.256958,63.535614 208.974182,63.535614 204.691391,63.535614 
	C204.269150,63.905178 203.846924,64.274742 203.424683,64.644302 
	C212.798248,65.922958 210.838898,71.864143 210.243622,77.318184 
	C209.683990,82.445526 209.178345,87.583214 208.837631,92.728844 
	C208.438568,98.755234 207.936584,104.629532 200.174866,107.187065 
	C191.642120,104.931305 188.157455,97.432915 182.651382,90.570480 
	C187.912689,86.030434 192.974487,81.662537 197.911789,77.402069 
	C193.502411,77.402069 188.882996,77.402069 184.263565,77.402069 
	C184.211746,77.656021 184.159912,77.909981 184.108078,78.163933 
	C185.436325,78.802284 186.764572,79.440628 188.791092,80.414566 
	C184.039093,84.486794 181.240097,89.893219 174.648804,92.525925 
	C174.648804,81.416542 174.648804,71.187645 174.648804,60.241184 
	C170.163864,61.423203 166.388275,62.418266 162.612686,63.413330 
	C168.048325,65.620811 168.520157,69.371178 168.302948,73.945259 
	C167.995117,80.427742 168.322449,86.937683 168.193695,93.432228 
	C168.092331,98.546005 170.308838,104.587349 162.674316,107.255165 
	C164.762024,107.829720 166.323303,108.009895 167.885376,108.016960 
	C174.873749,108.048569 181.865356,108.154037 188.849716,107.983871 
	C192.923126,107.884628 196.985092,107.315834 201.652832,107.726181 
M352.586823,77.225616 
	C349.812256,76.814415 347.030823,76.019234 344.264496,76.068771 
	C337.704742,76.186256 332.113434,80.964729 330.231659,87.571259 
	C328.186340,94.751961 330.256134,101.939003 335.406250,105.539230 
	C340.651978,109.206299 345.787781,108.818672 352.336487,104.305305 
	C352.700409,104.054497 353.250671,104.074112 353.713226,103.968086 
	C354.888000,108.810204 359.171234,109.344673 366.430664,105.038918 
	C358.632874,104.204033 360.142822,98.779472 360.124237,94.144226 
	C360.086914,84.836761 360.113129,75.529030 360.113098,66.221413 
	C360.113068,64.337692 360.113098,62.453972 360.113098,60.048573 
	C355.564911,61.186096 351.935059,62.093945 346.567566,63.436390 
	C355.775513,65.901970 354.145905,71.652260 352.586823,77.225616 
M81.396881,108.012665 
	C84.054253,108.012665 86.711632,108.012665 88.981201,108.012665 
	C86.484856,105.660210 82.516800,103.690147 82.405983,101.522858 
	C81.790062,89.477249 82.110481,77.383774 82.110481,65.666580 
	C90.778961,63.023823 96.492035,66.203629 100.046768,74.277679 
	C100.381775,73.896973 100.716782,73.516273 101.051788,73.135567 
	C100.676613,69.814125 100.301445,66.492691 99.937386,63.269604 
	C85.273239,63.269604 71.202019,63.269604 56.773846,63.269604 
	C56.570957,66.810570 56.383995,70.073616 56.197033,73.336670 
	C56.603497,73.602974 57.009960,73.869278 57.416424,74.135590 
	C60.678875,65.835983 66.399323,63.133511 74.703850,65.734116 
	C74.703850,74.879631 74.703842,84.023911 74.703842,93.168190 
	C74.703835,102.527748 74.703842,102.527748 66.026733,108.012802 
	C71.740540,108.012802 76.085945,108.012802 81.396881,108.012665 
M320.606140,103.394142 
	C320.403107,97.751854 320.345917,92.099686 319.964172,86.469513 
	C319.329224,77.105972 311.144775,73.008163 303.136078,77.951073 
	C301.684174,78.847176 300.337952,79.914536 298.811798,80.995773 
	C298.312103,78.997658 297.935822,77.493103 297.463409,75.604134 
	C293.685242,76.745987 290.296814,77.770050 286.908356,78.794121 
	C295.133759,81.810753 291.723572,88.434792 291.845703,93.406006 
	C291.967255,98.352371 294.623230,104.647369 287.222168,107.587494 
	C292.759430,107.587494 298.296692,107.587494 303.265289,107.587494 
	C301.626648,105.380013 299.014740,103.374802 298.613739,100.996788 
	C297.848633,96.459412 298.161102,91.700958 298.377441,87.050613 
	C298.534973,83.664421 303.609100,80.017792 307.509094,80.013420 
	C311.861450,80.008537 313.823059,83.004295 313.506409,86.468185 
	C312.850037,93.648438 318.252960,102.387039 307.848877,107.468971 
	C314.116821,107.468971 319.526886,107.468971 325.996521,107.468971 
	C323.641174,105.918320 322.301453,105.036301 320.606140,103.394142 
M110.041985,108.927864 
	C112.713760,107.711060 115.385544,106.494255 118.087860,105.263535 
	C121.753632,109.528412 124.817879,110.266235 127.950897,107.346527 
	C128.968338,106.398361 129.513458,104.943390 130.928726,102.669075 
	C128.251556,103.740150 126.986427,104.246307 124.645332,105.182930 
	C124.645332,100.626747 124.683380,96.859764 124.633598,93.093933 
	C124.591949,89.943993 124.580261,86.784332 124.318413,83.648758 
	C123.899178,78.628471 120.632317,76.491142 115.991684,76.013145 
	C109.565483,75.351250 103.041306,77.959297 101.557167,81.732697 
	C101.376953,82.190895 101.065422,82.764023 101.199715,83.149902 
	C101.720703,84.646805 102.144882,86.303520 103.125191,87.459808 
	C103.596642,88.015900 105.882812,88.015526 106.202385,87.523521 
	C106.981560,86.323997 107.754364,84.463165 107.346237,83.275208 
	C106.210228,79.968536 108.149605,78.892845 110.508217,78.295784 
	C114.038185,77.402206 116.771942,78.569260 117.873940,82.313011 
	C119.331070,87.263275 118.142975,89.986984 114.293831,91.177856 
	C111.449898,92.057739 108.553276,92.906990 105.892120,94.204643 
	C102.069206,96.068794 99.147591,98.964363 100.285400,103.655487 
	C101.380363,108.169960 105.035149,109.235664 110.041985,108.927864 
M415.961395,107.813499 
	C416.950684,106.529366 417.939972,105.245232 418.929230,103.961098 
	C418.633881,103.681587 418.338501,103.402084 418.043152,103.122581 
	C416.827271,103.709229 415.611389,104.295868 414.251068,104.952202 
	C413.848907,103.895737 413.324066,103.136772 413.304504,102.365013 
	C413.178253,97.375465 413.209198,92.382050 413.096008,87.392014 
	C412.995972,82.983734 412.807892,78.620995 407.611359,76.743484 
	C402.645020,74.949158 394.110931,76.380714 391.284882,79.944901 
	C390.353729,81.119209 389.517395,83.236549 389.966766,84.416580 
	C390.520630,85.871002 392.462616,86.796814 393.804688,87.951057 
	C394.577484,86.542603 395.571716,85.205406 396.054962,83.703781 
	C396.461823,82.439484 395.917969,79.961319 396.411682,79.789192 
	C398.611420,79.022240 402.270081,77.790565 403.123901,78.751198 
	C405.082397,80.954720 406.084534,84.266983 406.670715,87.285316 
	C406.864807,88.284798 404.830017,90.234848 403.412231,90.927811 
	C399.862762,92.662697 395.901917,93.593842 392.447205,95.474129 
	C389.036743,97.330345 387.695618,100.754181 389.067078,104.496002 
	C390.479736,108.350311 393.968384,109.610703 397.633575,108.872948 
	C400.772675,108.241096 403.700317,106.558846 406.845490,105.291168 
	C408.718750,108.314041 411.264496,110.344810 415.961395,107.813499 
M143.320877,106.583282 
	C141.000626,103.832924 138.680374,101.082558 136.407272,98.388084 
	C135.062195,104.896172 135.292313,107.176804 138.066269,107.771446 
	C141.590652,108.526947 145.311935,109.050369 148.873566,108.759262 
	C152.698288,108.446663 155.792099,106.201172 156.712433,102.126175 
	C157.598984,98.200729 156.410431,94.814743 153.016968,92.524498 
	C150.134445,90.579079 146.855225,89.163315 144.186340,86.981346 
	C142.593231,85.678886 141.490005,83.454819 140.888748,81.430550 
	C140.668320,80.688461 142.608795,78.365967 143.425766,78.433411 
	C145.713928,78.622299 148.267761,79.218216 150.075592,80.534294 
	C151.730270,81.738884 152.548141,84.092964 153.951065,86.277313 
	C155.718399,78.319199 154.641235,76.717773 147.507294,76.033401 
	C146.353546,75.922722 145.166458,75.882347 144.020264,76.020691 
	C140.159088,76.486748 136.909836,77.984291 135.678665,82.024734 
	C134.417160,86.164658 135.782455,89.626823 139.159012,92.140892 
	C141.546310,93.918373 144.180267,95.373238 146.749969,96.894676 
	C149.376083,98.449532 152.758392,100.178482 150.928131,103.582359 
	C149.963882,105.375626 146.437561,105.791252 143.320877,106.583282 
M432.396545,76.048515 
	C428.951691,76.869095 425.506836,77.689667 422.062012,78.510246 
	C429.883301,81.714958 426.934479,88.132324 426.962097,93.069550 
	C426.990601,98.161400 429.801758,104.623749 422.262360,107.566116 
	C427.790192,107.566116 433.318024,107.566116 438.845856,107.566116 
	C433.538483,105.762390 433.478485,101.690880 433.502594,97.335922 
	C433.541168,90.366180 433.290619,83.394836 432.396545,76.048515 
M272.446930,92.512833 
	C271.854797,97.916512 275.221130,104.611671 267.503632,107.650230 
	C273.136078,107.650230 278.768494,107.650230 284.400940,107.650230 
	C278.486908,105.910759 278.785095,101.361954 278.859222,96.781776 
	C278.970367,89.916405 278.888123,83.047913 278.888123,75.468857 
	C274.414978,76.707031 270.883148,77.684654 267.351318,78.662270 
	C271.828247,80.685127 273.163300,83.768623 272.474335,88.062500 
	C272.292725,89.194244 272.447205,90.379898 272.446930,92.512833 
M372.610291,101.843468 
	C370.764587,104.661903 371.508240,107.197174 374.322174,108.370796 
	C375.725189,108.955956 378.486938,108.369087 379.473419,107.270325 
	C380.426086,106.209213 380.615631,103.376831 379.851013,102.086693 
	C378.271027,99.420822 375.634460,99.214722 372.610291,101.843468 
M276.825104,60.294376 
	C275.035522,61.228142 272.945129,61.877010 271.632751,63.262726 
	C271.218781,63.699856 272.529877,66.652145 273.721527,67.440697 
	C274.623077,68.037285 277.778076,67.225525 277.868347,66.691818 
	C278.191589,64.780357 277.637329,62.720490 276.825104,60.294376 
M426.161469,65.153160 
	C427.438965,67.790161 429.436157,69.115997 431.999878,67.186195 
	C433.041321,66.402252 433.962555,64.112793 433.542603,63.071182 
	C433.008270,61.745960 430.542877,59.884373 429.822205,60.218929 
	C428.249359,60.949123 427.253143,62.921463 426.161469,65.153160 
z"/>
<path fill="#6724EC" opacity="1.000000" stroke="none" 
	d="
M201.053482,107.102379 
	C207.936584,104.629532 208.438568,98.755234 208.837631,92.728844 
	C209.178345,87.583214 209.683990,82.445526 210.243622,77.318184 
	C210.838898,71.864143 212.798248,65.922958 203.424683,64.644302 
	C203.846924,64.274742 204.269150,63.905178 204.691391,63.535614 
	C208.974182,63.535614 213.256958,63.535614 217.126495,63.535614 
	C222.166382,74.843948 227.206665,86.153168 232.246948,97.462387 
	C232.687469,97.472214 233.128006,97.482048 233.568527,97.491875 
	C238.272659,86.265320 242.976807,75.038757 247.867554,63.366840 
	C251.511353,63.366840 255.987411,63.366840 260.463470,63.366840 
	C252.217575,66.693504 254.840897,73.400360 255.183792,79.221008 
	C255.467468,84.036156 256.009338,88.838264 256.518829,93.637451 
	C257.389404,101.838058 257.416382,101.835197 264.594482,107.619797 
	C257.196747,107.619797 250.301880,107.619797 243.407013,107.619797 
	C243.314621,107.320625 243.222214,107.021461 243.129822,106.722290 
	C244.340485,106.098625 245.838547,105.734795 246.693329,104.789368 
	C247.924011,103.428192 249.548935,101.618950 249.502899,100.044884 
	C249.284195,92.566147 248.588562,85.099556 247.963287,77.636971 
	C247.893600,76.805145 247.192413,76.026230 246.259888,74.191345 
	C241.716736,84.793411 237.586853,94.519890 233.356445,104.202454 
	C232.758484,105.571098 231.670547,106.725685 230.809402,107.979355 
	C229.823196,106.783943 228.547043,105.727196 227.898117,104.370468 
	C223.878677,95.967018 220.011337,87.490921 216.061172,79.054077 
	C215.551895,77.966347 214.855957,76.966003 214.246490,75.925179 
	C213.804428,75.998878 213.362381,76.072578 212.920334,76.146278 
	C212.331329,84.158249 211.252548,92.182114 211.446655,100.175064 
	C211.506226,102.628220 215.050888,104.996742 217.260483,107.726181 
	C212.289093,107.726181 206.970963,107.726181 201.337433,107.365211 
	C201.022034,107.004242 201.053482,107.102379 201.053482,107.102379 
z"/>
<path fill="#6926EC" opacity="1.000000" stroke="none" 
	d="
M200.614166,107.144722 
	C201.053482,107.102379 201.022034,107.004242 201.037125,106.981270 
	C196.985092,107.315834 192.923126,107.884628 188.849716,107.983871 
	C181.865356,108.154037 174.873749,108.048569 167.885376,108.016960 
	C166.323303,108.009895 164.762024,107.829720 162.674316,107.255165 
	C170.308838,104.587349 168.092331,98.546005 168.193695,93.432228 
	C168.322449,86.937683 167.995117,80.427742 168.302948,73.945259 
	C168.520157,69.371178 168.048325,65.620811 162.612686,63.413330 
	C166.388275,62.418266 170.163864,61.423203 174.648804,60.241184 
	C174.648804,71.187645 174.648804,81.416542 174.648804,92.525925 
	C181.240097,89.893219 184.039093,84.486794 188.791092,80.414566 
	C186.764572,79.440628 185.436325,78.802284 184.108078,78.163933 
	C184.159912,77.909981 184.211746,77.656021 184.263565,77.402069 
	C188.882996,77.402069 193.502411,77.402069 197.911789,77.402069 
	C192.974487,81.662537 187.912689,86.030434 182.651382,90.570480 
	C188.157455,97.432915 191.642120,104.931305 200.614166,107.144722 
M185.316452,104.056938 
	C182.274673,100.497253 180.492386,95.619301 174.687424,94.387794 
	C174.974335,98.145203 175.208298,102.134560 177.205933,104.804138 
	C178.859879,107.014420 182.595612,107.748016 185.316452,104.056938 
z"/>
<path fill="#6521EC" opacity="1.000000" stroke="none" 
	d="
M353.033752,77.134384 
	C354.145905,71.652260 355.775513,65.901970 346.567566,63.436390 
	C351.935059,62.093945 355.564911,61.186096 360.113098,60.048573 
	C360.113098,62.453972 360.113068,64.337692 360.113098,66.221413 
	C360.113129,75.529030 360.086914,84.836761 360.124237,94.144226 
	C360.142822,98.779472 358.632874,104.204033 366.430664,105.038918 
	C359.171234,109.344673 354.888000,108.810204 353.713226,103.968086 
	C353.250671,104.074112 352.700409,104.054497 352.336487,104.305305 
	C345.787781,108.818672 340.651978,109.206299 335.406250,105.539230 
	C330.256134,101.939003 328.186340,94.751961 330.231659,87.571259 
	C332.113434,80.964729 337.704742,76.186256 344.264496,76.068771 
	C347.030823,76.019234 349.812256,76.814415 353.033752,77.134384 
M344.585022,78.016304 
	C339.151794,79.466354 336.520844,82.701447 335.945007,88.640450 
	C335.278687,95.512154 337.681030,101.055328 342.252411,103.194359 
	C348.031464,105.898491 353.857971,102.263222 353.900055,95.917946 
	C353.916565,93.427353 353.969208,90.934189 353.884979,88.446274 
	C353.673523,82.199364 351.640625,79.749710 344.585022,78.016304 
z"/>
<path fill="#631EEC" opacity="1.000000" stroke="none" 
	d="
M80.914124,108.012733 
	C76.085945,108.012802 71.740540,108.012802 66.026733,108.012802 
	C74.703842,102.527748 74.703835,102.527748 74.703842,93.168190 
	C74.703842,84.023911 74.703850,74.879631 74.703850,65.734116 
	C66.399323,63.133511 60.678875,65.835983 57.416424,74.135590 
	C57.009960,73.869278 56.603497,73.602974 56.197033,73.336670 
	C56.383995,70.073616 56.570957,66.810570 56.773846,63.269604 
	C71.202019,63.269604 85.273239,63.269604 99.937386,63.269604 
	C100.301445,66.492691 100.676613,69.814125 101.051788,73.135567 
	C100.716782,73.516273 100.381775,73.896973 100.046768,74.277679 
	C96.492035,66.203629 90.778961,63.023823 82.110481,65.666580 
	C82.110481,77.383774 81.790062,89.477249 82.405983,101.522858 
	C82.516800,103.690147 86.484856,105.660210 88.981201,108.012665 
	C86.711632,108.012665 84.054253,108.012665 80.914124,108.012733 
z"/>
<path fill="#641FEC" opacity="1.000000" stroke="none" 
	d="
M320.783936,103.774208 
	C322.301453,105.036301 323.641174,105.918320 325.996521,107.468971 
	C319.526886,107.468971 314.116821,107.468971 307.848877,107.468971 
	C318.252960,102.387039 312.850037,93.648438 313.506409,86.468185 
	C313.823059,83.004295 311.861450,80.008537 307.509094,80.013420 
	C303.609100,80.017792 298.534973,83.664421 298.377441,87.050613 
	C298.161102,91.700958 297.848633,96.459412 298.613739,100.996788 
	C299.014740,103.374802 301.626648,105.380013 303.265289,107.587494 
	C298.296692,107.587494 292.759430,107.587494 287.222168,107.587494 
	C294.623230,104.647369 291.967255,98.352371 291.845703,93.406006 
	C291.723572,88.434792 295.133759,81.810753 286.908356,78.794121 
	C290.296814,77.770050 293.685242,76.745987 297.463409,75.604134 
	C297.935822,77.493103 298.312103,78.997658 298.811798,80.995773 
	C300.337952,79.914536 301.684174,78.847176 303.136078,77.951073 
	C311.144775,73.008163 319.329224,77.105972 319.964172,86.469513 
	C320.345917,92.099686 320.403107,97.751854 320.783936,103.774208 
z"/>
<path fill="#6A28EC" opacity="1.000000" stroke="none" 
	d="
M109.635490,108.963921 
	C105.035149,109.235664 101.380363,108.169960 100.285400,103.655487 
	C99.147591,98.964363 102.069206,96.068794 105.892120,94.204643 
	C108.553276,92.906990 111.449898,92.057739 114.293831,91.177856 
	C118.142975,89.986984 119.331070,87.263275 117.873940,82.313011 
	C116.771942,78.569260 114.038185,77.402206 110.508217,78.295784 
	C108.149605,78.892845 106.210228,79.968536 107.346237,83.275208 
	C107.754364,84.463165 106.981560,86.323997 106.202385,87.523521 
	C105.882812,88.015526 103.596642,88.015900 103.125191,87.459808 
	C102.144882,86.303520 101.720703,84.646805 101.199715,83.149902 
	C101.065422,82.764023 101.376953,82.190895 101.557167,81.732697 
	C103.041306,77.959297 109.565483,75.351250 115.991684,76.013145 
	C120.632317,76.491142 123.899178,78.628471 124.318413,83.648758 
	C124.580261,86.784332 124.591949,89.943993 124.633598,93.093933 
	C124.683380,96.859764 124.645332,100.626747 124.645332,105.182930 
	C126.986427,104.246307 128.251556,103.740150 130.928726,102.669075 
	C129.513458,104.943390 128.968338,106.398361 127.950897,107.346527 
	C124.817879,110.266235 121.753632,109.528412 118.087860,105.263535 
	C115.385544,106.494255 112.713760,107.711060 109.635490,108.963921 
M118.233536,95.663010 
	C117.943405,94.803963 117.863754,93.382439 117.327293,93.181686 
	C114.786972,92.231071 107.589211,96.785255 106.989311,99.518127 
	C106.242867,102.918640 108.576050,105.505592 112.070137,104.891235 
	C116.666016,104.083138 119.081413,101.468765 118.233536,95.663010 
z"/>
<path fill="#6622EC" opacity="1.000000" stroke="none" 
	d="
M415.638489,108.000031 
	C411.264496,110.344810 408.718750,108.314041 406.845490,105.291168 
	C403.700317,106.558846 400.772675,108.241096 397.633575,108.872948 
	C393.968384,109.610703 390.479736,108.350311 389.067078,104.496002 
	C387.695618,100.754181 389.036743,97.330345 392.447205,95.474129 
	C395.901917,93.593842 399.862762,92.662697 403.412231,90.927811 
	C404.830017,90.234848 406.864807,88.284798 406.670715,87.285316 
	C406.084534,84.266983 405.082397,80.954720 403.123901,78.751198 
	C402.270081,77.790565 398.611420,79.022240 396.411682,79.789192 
	C395.917969,79.961319 396.461823,82.439484 396.054962,83.703781 
	C395.571716,85.205406 394.577484,86.542603 393.804688,87.951065 
	C392.462616,86.796814 390.520630,85.871002 389.966766,84.416580 
	C389.517395,83.236549 390.353729,81.119209 391.284882,79.944901 
	C394.110931,76.380714 402.645020,74.949158 407.611359,76.743484 
	C412.807892,78.620995 412.995972,82.983734 413.096008,87.392014 
	C413.209198,92.382050 413.178253,97.375465 413.304504,102.365013 
	C413.324066,103.136772 413.848907,103.895737 414.251068,104.952202 
	C415.611389,104.295868 416.827271,103.709229 418.043152,103.122581 
	C418.338501,103.402084 418.633881,103.681587 418.929230,103.961098 
	C417.939972,105.245232 416.950684,106.529366 415.638489,108.000031 
M406.591034,101.584404 
	C406.591034,98.784363 406.591034,95.984322 406.591034,92.653214 
	C404.859894,93.161201 403.034760,93.238297 401.837952,94.144859 
	C399.458069,95.947586 397.194275,98.034286 395.414856,100.403465 
	C394.990509,100.968445 396.808472,104.372963 397.342926,104.310585 
	C400.277252,103.968117 403.133179,102.953819 406.591034,101.584404 
z"/>
<path fill="#6927EC" opacity="1.000000" stroke="none" 
	d="
M143.694489,106.706100 
	C146.437561,105.791252 149.963882,105.375626 150.928131,103.582359 
	C152.758392,100.178482 149.376083,98.449532 146.749969,96.894676 
	C144.180267,95.373238 141.546310,93.918373 139.159012,92.140892 
	C135.782455,89.626823 134.417160,86.164658 135.678665,82.024734 
	C136.909836,77.984291 140.159088,76.486748 144.020264,76.020691 
	C145.166458,75.882347 146.353546,75.922722 147.507294,76.033401 
	C154.641235,76.717773 155.718399,78.319199 153.951065,86.277313 
	C152.548141,84.092964 151.730270,81.738884 150.075592,80.534294 
	C148.267761,79.218216 145.713928,78.622299 143.425766,78.433411 
	C142.608795,78.365967 140.668320,80.688461 140.888748,81.430550 
	C141.490005,83.454819 142.593231,85.678886 144.186340,86.981346 
	C146.855225,89.163315 150.134445,90.579079 153.016968,92.524498 
	C156.410431,94.814743 157.598984,98.200729 156.712433,102.126175 
	C155.792099,106.201172 152.698288,108.446663 148.873566,108.759262 
	C145.311935,109.050369 141.590652,108.526947 138.066269,107.771446 
	C135.292313,107.176804 135.062195,104.896172 136.407272,98.388084 
	C138.680374,101.082558 141.000626,103.832924 143.694489,106.706100 
z"/>
<path fill="#6521EC" opacity="1.000000" stroke="none" 
	d="
M432.779419,76.236343 
	C433.290619,83.394836 433.541168,90.366180 433.502594,97.335922 
	C433.478485,101.690880 433.538483,105.762390 438.845856,107.566116 
	C433.318024,107.566116 427.790192,107.566116 422.262360,107.566116 
	C429.801758,104.623749 426.990601,98.161400 426.962097,93.069550 
	C426.934479,88.132324 429.883301,81.714958 422.062012,78.510246 
	C425.506836,77.689667 428.951691,76.869095 432.779419,76.236343 
z"/>
<path fill="#6622EC" opacity="1.000000" stroke="none" 
	d="
M272.447144,92.026817 
	C272.447205,90.379898 272.292725,89.194244 272.474335,88.062500 
	C273.163300,83.768623 271.828247,80.685127 267.351318,78.662270 
	C270.883148,77.684654 274.414978,76.707031 278.888123,75.468857 
	C278.888123,83.047913 278.970367,89.916405 278.859222,96.781776 
	C278.785095,101.361954 278.486908,105.910759 284.400940,107.650230 
	C278.768494,107.650230 273.136078,107.650230 267.503632,107.650230 
	C275.221130,104.611671 271.854797,97.916512 272.447144,92.026817 
z"/>
<path fill="#6623EC" opacity="1.000000" stroke="none" 
	d="
M372.853180,101.567375 
	C375.634460,99.214722 378.271027,99.420822 379.851013,102.086693 
	C380.615631,103.376831 380.426086,106.209213 379.473419,107.270325 
	C378.486938,108.369087 375.725189,108.955956 374.322174,108.370796 
	C371.508240,107.197174 370.764587,104.661903 372.853180,101.567375 
z"/>
<path fill="#6926EC" opacity="1.000000" stroke="none" 
	d="
M277.119995,60.505566 
	C277.637329,62.720490 278.191589,64.780357 277.868347,66.691818 
	C277.778076,67.225525 274.623077,68.037285 273.721527,67.440697 
	C272.529877,66.652145 271.218781,63.699856 271.632751,63.262726 
	C272.945129,61.877010 275.035522,61.228142 277.119995,60.505566 
z"/>
<path fill="#6B2AED" opacity="1.000000" stroke="none" 
	d="
M426.091400,64.769730 
	C427.253143,62.921463 428.249359,60.949123 429.822205,60.218929 
	C430.542877,59.884373 433.008270,61.745960 433.542603,63.071182 
	C433.962555,64.112793 433.041321,66.402252 431.999878,67.186195 
	C429.436157,69.115997 427.438965,67.790161 426.091400,64.769730 
z"/>
<path fill="#FFFEFF" opacity="1.000000" stroke="none" 
	d="
M185.341583,104.477318 
	C182.595612,107.748016 178.859879,107.014420 177.205933,104.804138 
	C175.208298,102.134560 174.974335,98.145203 174.687424,94.387794 
	C180.492386,95.619301 182.274673,100.497253 185.341583,104.477318 
z"/>
<path fill="#FBF9FE" opacity="1.000000" stroke="none" 
	d="
M344.974854,78.016724 
	C351.640625,79.749710 353.673523,82.199364 353.884979,88.446274 
	C353.969208,90.934189 353.916565,93.427353 353.900055,95.917946 
	C353.857971,102.263222 348.031464,105.898491 342.252411,103.194359 
	C337.681030,101.055328 335.278687,95.512154 335.945007,88.640450 
	C336.520844,82.701447 339.151794,79.466354 344.974854,78.016724 
z"/>
<path fill="#FAF8FE" opacity="1.000000" stroke="none" 
	d="
M118.234879,96.103821 
	C119.081413,101.468765 116.666016,104.083138 112.070137,104.891235 
	C108.576050,105.505592 106.242867,102.918640 106.989311,99.518127 
	C107.589211,96.785255 114.786972,92.231071 117.327293,93.181686 
	C117.863754,93.382439 117.943405,94.803963 118.234879,96.103821 
z"/>
<path fill="#F6F3FE" opacity="1.000000" stroke="none" 
	d="
M406.303528,101.877289 
	C403.133179,102.953819 400.277252,103.968117 397.342926,104.310585 
	C396.808472,104.372963 394.990509,100.968445 395.414856,100.403465 
	C397.194275,98.034286 399.458069,95.947586 401.837952,94.144859 
	C403.034760,93.238297 404.859894,93.161201 406.591034,92.653214 
	C406.591034,95.984322 406.591034,98.784363 406.303528,101.877289 
z"/>
</svg>