<?xml version="1.0" encoding="UTF-8"?>
<svg version="1.1" xmlns="http://www.w3.org/2000/svg" width="1024" height="1024">
<path d="M0 0 C337.92 0 675.84 0 1024 0 C1024 337.92 1024 675.84 1024 1024 C686.08 1024 348.16 1024 0 1024 C0 686.08 0 348.16 0 0 Z " fill="#000000" transform="translate(0,0)"/>
<path d="M0 0 C5.61 0 11.22 0 17 0 C25.60744199 18.54991579 33.85276358 37.24469998 42 56 C48.16128285 44.06402049 53.64076635 31.9031657 58.9375 19.5625 C60.08425613 16.89764572 61.23234021 14.23338457 62.38319397 11.57029724 C63.09135401 9.93099072 63.79704816 8.29061624 64.49998474 6.64906311 C66.88819626 1.11180374 66.88819626 1.11180374 68 0 C73.61 0 79.22 0 85 0 C85 25.41 85 50.82 85 77 C79.72 77 74.44 77 69 77 C68.67 61.49 68.34 45.98 68 30 C62.16473463 43.97055473 62.16473463 43.97055473 56.33251953 57.94238281 C55.59939423 59.69600969 54.86616556 61.44959336 54.1328125 63.203125 C53.75439209 64.1111084 53.37597168 65.0190918 52.98608398 65.95458984 C52.62087646 66.82712402 52.25566895 67.6996582 51.87939453 68.59863281 C51.56406769 69.35364075 51.24874084 70.10864868 50.92385864 70.88653564 C50.01909447 72.95631856 49.01020785 74.97958429 48 77 C44.04 77 40.08 77 36 77 C29.73 61.82 23.46 46.64 17 31 C16.67 46.18 16.34 61.36 16 77 C10.72 77 5.44 77 0 77 C0 51.59 0 26.18 0 0 Z " fill="#4E49DC" transform="translate(538,462)"/>
<path d="M0 0 C4.95 0 9.9 0 15 0 C15 27.39 15 54.78 15 83 C10.05 83 5.1 83 0 83 C-0.495 79.04 -0.495 79.04 -1 75 C-1.42410156 75.39832031 -1.84820313 75.79664063 -2.28515625 76.20703125 C-8.9814666 82.25578631 -14.83686397 84.68650549 -23.94140625 84.40234375 C-32.30126819 83.30264288 -38.14835931 78.78848121 -43.375 72.37109375 C-48.84615078 64.38794825 -49.95199424 53.63623167 -48.59765625 44.1953125 C-46.43099869 35.96457785 -41.98974652 28.51591972 -34.69921875 23.9296875 C-28.4332121 20.50138961 -22.01773869 20.13600705 -15 21 C-8.49193147 23.15157457 -5.34235138 25.57206077 -1 31 C-0.67 20.77 -0.34 10.54 0 0 Z " fill="#514BDF" transform="translate(788,456)"/>
<path d="M0 0 C3.33058882 1.91019065 6.10726307 4.40889817 8.859375 7.06640625 C9.189375 4.42640625 9.519375 1.78640625 9.859375 -0.93359375 C14.809375 -0.93359375 19.759375 -0.93359375 24.859375 -0.93359375 C24.859375 19.19640625 24.859375 39.32640625 24.859375 60.06640625 C19.909375 60.06640625 14.959375 60.06640625 9.859375 60.06640625 C9.364375 56.10640625 9.364375 56.10640625 8.859375 52.06640625 C8.43527344 52.46472656 8.01117188 52.86304688 7.57421875 53.2734375 C0.8779084 59.32219256 -4.97748897 61.75291174 -14.08203125 61.46875 C-22.55148167 60.35463328 -28.21155077 55.79102487 -33.515625 49.33203125 C-38.84276961 41.90476232 -39.95862006 33.03513781 -39.140625 24.06640625 C-37.05475865 13.91314506 -32.38927896 7.25289672 -24.140625 1.06640625 C-16.74478687 -3.25946134 -7.85031362 -3.35746884 0 0 Z " fill="#504ADE" transform="translate(374.140625,478.93359375)"/>
<path d="M0 0 C6.27 0 12.54 0 19 0 C19.4626123 1.33772461 19.92522461 2.67544922 20.40185547 4.05371094 C22.55784044 10.28640669 24.7159861 16.51835288 26.875 22.75 C27.26138641 23.86536133 27.64777283 24.98072266 28.04586792 26.12988281 C33.05857445 40.5936992 38.10217682 55.04419429 43.30615234 69.44042969 C43.67047363 70.45008789 44.03479492 71.45974609 44.41015625 72.5 C44.72090088 73.3559375 45.03164551 74.211875 45.35180664 75.09375 C46 77 46 77 46 78 C40.39 78 34.78 78 29 78 C28.54625 76.80375 28.0925 75.6075 27.625 74.375 C27.36976563 73.70210937 27.11453125 73.02921875 26.8515625 72.3359375 C25.84573417 69.57683042 24.92867446 66.78602338 24 64 C14.43 64 4.86 64 -5 64 C-6.65 68.62 -8.3 73.24 -10 78 C-15.61 78 -21.22 78 -27 78 C-24.66573242 69.96195909 -21.99460602 62.07504821 -19.21875 54.1796875 C-18.75922945 52.86798963 -18.29988222 51.55623102 -17.84069824 50.24441528 C-16.8839363 47.51255924 -15.92571781 44.78122041 -14.96630859 42.05029297 C-13.7437707 38.57028389 -12.52396633 35.08932475 -11.30513763 31.60801506 C-10.35872881 28.90526193 -9.41135009 26.20284963 -8.46363831 23.50055313 C-7.79704986 21.59974162 -7.13088067 19.6987831 -6.46472168 17.79782104 C-6.05419556 16.62945709 -5.64366943 15.46109314 -5.22070312 14.25732422 C-4.86335083 13.2393576 -4.50599854 12.22139099 -4.13781738 11.1725769 C-2.79712473 7.43432276 -1.39445088 3.71853568 0 0 Z " fill="#4F4ADD" transform="translate(870,461)"/>
<path d="M0 0 C4.95 0 9.9 0 15 0 C15.33 15.18 15.66 30.36 16 46 C25.43854721 34.46500881 25.43854721 34.46500881 29.375 26.6875 C31.39502245 23.77156801 32.76495627 22.24931822 36.29785156 21.53613281 C42.220796 21.05329596 48.09743058 21.39709469 54 22 C49.78305496 27.73916409 45.36736844 33.27638008 40.8125 38.75 C39.58903272 40.2232852 38.3663491 41.69722161 37.14453125 43.171875 C36.34559448 44.1323877 36.34559448 44.1323877 35.53051758 45.11230469 C35.02544678 45.73524414 34.52037598 46.35818359 34 47 C33.43063721 47.69085693 32.86127441 48.38171387 32.2746582 49.09350586 C30.70567986 50.95438756 30.70567986 50.95438756 31.4609375 53.33203125 C33.47763622 56.82798359 35.94309555 59.68546667 38.625 62.6875 C39.70819494 63.92606658 40.79022081 65.16565653 41.87109375 66.40625 C42.40202637 67.01339844 42.93295898 67.62054687 43.47998047 68.24609375 C45.59685776 70.68869677 47.65267653 73.17628411 49.6875 75.6875 C50.31011719 76.45449219 50.93273437 77.22148438 51.57421875 78.01171875 C53 80 53 80 54 83 C38.26694322 85.36983282 38.26694322 85.36983282 33.03515625 81.57470703 C28.93023384 77.23591574 26.06967479 72.09039266 23 67 C20.69 64.03 18.38 61.06 16 58 C15.67 66.25 15.34 74.5 15 83 C10.05 83 5.1 83 0 83 C0 55.61 0 28.22 0 0 Z " fill="#504ADE" transform="translate(475,456)"/>
<path d="M0 0 C6.6603762 3.77878713 9.68367628 8.11162371 12.00967407 15.36178589 C13.0374281 19.55950584 12.99430691 23.64107266 12.91796875 27.94140625 C12.91372391 28.86090561 12.90947906 29.78040497 12.90510559 30.72776794 C12.88846776 33.63132459 12.85084467 36.53415726 12.8125 39.4375 C12.79743386 41.41991177 12.78374886 43.40233454 12.77148438 45.38476562 C12.73861326 50.21511778 12.68693611 55.04493664 12.625 59.875 C7.675 59.875 2.725 59.875 -2.375 59.875 C-2.38958252 58.78558105 -2.40416504 57.69616211 -2.41918945 56.57373047 C-2.47736072 52.51432215 -2.55459182 48.45545763 -2.63745117 44.39648438 C-2.6706122 42.64299373 -2.69867142 40.88939862 -2.72143555 39.13574219 C-2.7551447 36.60827302 -2.80746692 34.08175362 -2.86328125 31.5546875 C-2.86967117 30.77632538 -2.8760611 29.99796326 -2.88264465 29.1960144 C-3.01248057 24.34006508 -3.92695805 21.18156706 -6.375 16.875 C-6.375 16.215 -6.375 15.555 -6.375 14.875 C-11.13701081 12.3352609 -16.1155331 12.05873074 -21.375 12.875 C-24.92997168 14.56888221 -26.94849197 16.8747788 -28.50537109 20.52587891 C-29.53367329 24.4860837 -29.72700374 28.27171101 -29.7890625 32.3359375 C-29.80842865 33.12650543 -29.8277948 33.91707336 -29.8477478 34.7315979 C-29.90716053 37.23762483 -29.95377427 39.74369865 -30 42.25 C-30.03821513 43.95705043 -30.07726889 45.66408231 -30.1171875 47.37109375 C-30.21283011 51.53891044 -30.29700115 55.7068173 -30.375 59.875 C-35.325 59.875 -40.275 59.875 -45.375 59.875 C-45.375 39.745 -45.375 19.615 -45.375 -1.125 C-40.425 -1.125 -35.475 -1.125 -30.375 -1.125 C-30.045 1.185 -29.715 3.495 -29.375 5.875 C-28.529375 5.111875 -27.68375 4.34875 -26.8125 3.5625 C-18.76537362 -3.02491508 -9.46711691 -4.37377979 0 0 Z " fill="#504ADD" transform="translate(715.375,479.125)"/>
<path d="M0 0 C4.27186059 3.52350545 7.20294326 6.90148646 7.9375 12.5 C7.958125 13.655 7.97875 14.81 8 16 C5.58063683 16.16249454 3.17218141 16.28097817 0.75 16.375 C0.06808594 16.42527344 -0.61382812 16.47554688 -1.31640625 16.52734375 C-3.328125 16.5859375 -3.328125 16.5859375 -7 16 C-9.234375 13.04296875 -9.234375 13.04296875 -11 10 C-13.65636803 8.79114502 -16.10644463 8.7509645 -19 9 C-21.59869315 9.86424561 -21.59869315 9.86424561 -23 12 C-23.33397787 15.12586875 -23.33397787 15.12586875 -23 18 C-22.17822266 18.23783203 -22.17822266 18.23783203 -21.33984375 18.48046875 C-19.62164976 18.98614861 -17.90717186 19.50452404 -16.1953125 20.03125 C-13.88736766 20.73096922 -11.56788517 21.3930128 -9.2421875 22.03125 C-2.58593164 23.93386714 3.67114587 25.74973641 7.953125 31.5546875 C10.11569472 36.60606303 9.85755639 41.65944556 9 47 C6.64284303 52.50003294 2.32419551 55.51140955 -3 58 C-11.73574071 60.29583929 -21.86149046 60.11035836 -30 56 C-34.48329085 53.22134501 -37.08899532 49.9283805 -39 45 C-39.33 43.02 -39.66 41.04 -40 39 C-34.72 39 -29.44 39 -24 39 C-23.34 40.98 -22.68 42.96 -22 45 C-20.33317313 46.04675713 -20.33317313 46.04675713 -18 46 C-17.36191406 46.04898438 -16.72382813 46.09796875 -16.06640625 46.1484375 C-13.06066813 46.29183051 -10.6647186 46.37390421 -8 44.875 C-6.57901395 42.21065116 -6.80232739 39.96508915 -7 37 C-7.53625 36.85304688 -8.0725 36.70609375 -8.625 36.5546875 C-14.24635999 34.94594303 -19.79686242 33.12505097 -25.3125 31.1875 C-25.99376953 30.96368652 -26.67503906 30.73987305 -27.37695312 30.50927734 C-33.03257613 28.46974958 -36.26064105 25.47871789 -39 20 C-39.76701215 13.12203859 -39.14838884 8.5675745 -35 3 C-25.79195935 -6.20804065 -10.95240128 -6.72250837 0 0 Z " fill="#504ADE" transform="translate(452,481)"/>
<path d="M0 0 C18.81 0 37.62 0 57 0 C57 4.29 57 8.58 57 13 C50.4 13 43.8 13 37 13 C37 34.12 37 55.24 37 77 C31.72 77 26.44 77 21 77 C21 55.88 21 34.76 21 13 C14.07 13 7.14 13 0 13 C0 8.71 0 4.42 0 0 Z " fill="#504ADC" transform="translate(273,462)"/>
<path d="M0 0 C6.73557783 3.23286912 11.180194 9.15573967 15.96484375 14.7578125 C19.32767415 18.46273505 23.00152399 21.86212326 26.64453125 25.2890625 C31.08190238 30.39608665 31.28707371 35.71192254 31.1953125 42.2421875 C31.1924826 43.01055939 31.18965271 43.77893127 31.18673706 44.57058716 C31.17561311 47.00555521 31.1505236 49.44014462 31.125 51.875 C31.11496011 53.53384882 31.10583603 55.19270346 31.09765625 56.8515625 C31.07569937 60.90118579 31.04122406 64.95052887 31 69 C22.83706348 64.26332411 16.73648489 57.01225475 10.6640625 49.875 C8.41439255 47.34016061 5.97081095 45.03486685 3.48046875 42.73828125 C-0.35431644 38.23569706 -0.27196939 33.29283767 -0.1953125 27.63671875 C-0.1924826 26.84473587 -0.18965271 26.05275299 -0.18673706 25.23677063 C-0.17558863 22.72019001 -0.15049422 20.20397211 -0.125 17.6875 C-0.11496329 15.97591662 -0.10583864 14.26432763 -0.09765625 12.55273438 C-0.07566681 8.36835094 -0.04117408 4.18423686 0 0 Z " fill="#504DDA" transform="translate(177,507)"/>
<path d="M0 0 C0.99 0 1.98 0 3 0 C3.14918422 5.12275667 3.25760412 10.24422831 3.32958984 15.36865234 C3.35961998 17.10878547 3.40045827 18.84876903 3.45263672 20.58837891 C3.92953646 36.90583076 3.92953646 36.90583076 0.6796875 41.46875 C-0.5066832 42.68633175 -1.73977446 43.85903009 -3 45 C-4.30203492 46.36626763 -5.60378763 47.73281369 -6.90115356 49.10351562 C-8.81583281 51.1030797 -10.77634823 53.05381549 -12.7421875 55.00292969 C-14.26806595 56.51793724 -15.7827732 58.04354447 -17.296875 59.5703125 C-18.26498312 60.53710151 -19.23371013 61.50327129 -20.203125 62.46875 C-21.07614258 63.33951172 -21.94916016 64.21027344 -22.84863281 65.10742188 C-25 67 -25 67 -27 67 C-27.09922625 61.98296821 -27.17163587 56.96651348 -27.21972656 51.94873047 C-27.23978369 50.24355106 -27.26703657 48.53843994 -27.30175781 46.83349609 C-27.35053861 44.37580476 -27.37302719 41.91902634 -27.390625 39.4609375 C-27.42159271 38.32620499 -27.42159271 38.32620499 -27.45318604 37.16854858 C-27.4565235 29.21169973 -23.06023711 24.84415169 -17.8125 19.1875 C-17.33490234 18.67123047 -16.85730469 18.15496094 -16.36523438 17.62304688 C-12.64000082 13.62077071 -8.79870076 9.74579779 -4.875 5.9375 C-2.93881986 4.04101631 -2.93881986 4.04101631 -1.4375 1.75 C-0.963125 1.1725 -0.48875 0.595 0 0 Z " fill="#4D4AD6" transform="translate(205,422)"/>
<path d="M0 0 C0.17400017 5.26513041 0.3005091 10.52856208 0.38452148 15.79589844 C0.4195657 17.58460669 0.46721801 19.37311671 0.52807617 21.16113281 C1.08474704 37.94546118 1.08474704 37.94546118 -3.1640625 42.85546875 C-4.40931227 43.94310994 -5.68718613 44.99494771 -7 46 C-8.01958492 47.01436925 -9.02707656 48.04110277 -10.01953125 49.08203125 C-10.94121094 49.98308594 -11.86289063 50.88414062 -12.8125 51.8125 C-15.54685698 54.48651255 -17.87755343 56.81633014 -20 60 C-20.66 60 -21.32 60 -22 60 C-22.226875 60.5775 -22.45375 61.155 -22.6875 61.75 C-24.32802461 64.5623279 -26.43778814 66.02970461 -29 68 C-29.22440037 62.50506794 -29.38666571 57.01286382 -29.49438477 51.5144043 C-29.53933179 49.64902232 -29.60051645 47.78395174 -29.67895508 45.91967773 C-30.39461346 28.45854882 -30.39461346 28.45854882 -24.921875 21.67578125 C-23.32268539 20.07470116 -21.68362131 18.51204635 -20 17 C-18.7273218 15.66169567 -17.45986855 14.31839084 -16.19921875 12.96875 C-15.03385957 11.80724537 -13.86340363 10.65082825 -12.6875 9.5 C-12.09388672 8.90703125 -11.50027344 8.3140625 -10.88867188 7.703125 C-3.10747466 0 -3.10747466 0 0 0 Z " fill="#4E4BD7" transform="translate(168,508)"/>
<path d="M0 0 C3.83402927 3.22247303 7.57943186 6.43313902 11.0078125 10.09375 C11.68457031 10.81433594 12.36132812 11.53492188 13.05859375 12.27734375 C13.74050781 13.01082031 14.42242187 13.74429687 15.125 14.5 C15.81464844 15.23347656 16.50429687 15.96695312 17.21484375 16.72265625 C29.16898301 29.49964257 29.16898301 29.49964257 29.09765625 40.16796875 C29.0962413 40.96278152 29.09482635 41.7575943 29.09336853 42.57649231 C29.08777378 45.11353325 29.07522228 47.65048575 29.0625 50.1875 C29.05748432 51.90820185 29.05292153 53.62890508 29.04882812 55.34960938 C29.03780607 59.5664403 29.02054506 63.78320516 29 68 C25.51753793 67.41687447 23.8626476 66.23824238 21.390625 63.75390625 C20.72168213 63.08568848 20.05273926 62.4174707 19.36352539 61.72900391 C18.66606201 61.01405762 17.96859863 60.29911133 17.25 59.5625 C16.53642334 58.83981934 15.82284668 58.11713867 15.08764648 57.37255859 C-0.16798137 41.75639701 -0.16798137 41.75639701 -0.09765625 30.2734375 C-0.0962413 29.41062164 -0.09482635 28.54780579 -0.09336853 27.65884399 C-0.08776188 24.8975277 -0.07520827 22.13629188 -0.0625 19.375 C-0.05748586 17.5052095 -0.0529228 15.63541774 -0.04882812 13.765625 C-0.03779029 9.17705223 -0.0205212 4.58853977 0 0 Z " fill="#504FDA" transform="translate(140,422)"/>
<path d="M0 0 C4.95 0 9.9 0 15 0 C15 25.41 15 50.82 15 77 C10.05 77 5.1 77 0 77 C0 51.59 0 26.18 0 0 Z " fill="#514CE0" transform="translate(927,462)"/>
<path d="M0 0 C4.89295147 -0.07433779 9.78557183 -0.12869027 14.67895508 -0.16479492 C16.34242481 -0.17985114 18.00585505 -0.20030063 19.66918945 -0.22631836 C22.06471522 -0.26284207 24.45971467 -0.27975782 26.85546875 -0.29296875 C27.96513252 -0.31619453 27.96513252 -0.31619453 29.09721375 -0.33988953 C36.20446064 -0.34218903 39.44816265 2.23241222 44.37812805 7.10023499 C44.89916611 7.6253215 45.42020416 8.15040802 45.95703125 8.69140625 C46.50485764 9.23731918 47.05268402 9.78323212 47.61711121 10.34568787 C48.76664942 11.49387133 49.91369089 12.64455938 51.05834961 13.79760742 C52.81729155 15.56732089 54.58672966 17.32603624 56.35742188 19.08398438 C57.47460073 20.20248373 58.59115961 21.32160275 59.70703125 22.44140625 C60.23819046 22.968517 60.76934967 23.49562775 61.31660461 24.03871155 C65 27.77004717 65 27.77004717 65 30 C59.91402543 30.22434739 54.83099335 30.38663156 49.74121094 30.49438477 C48.0144631 30.53934209 46.28805199 30.60053584 44.5625 30.67895508 C28.3966195 31.39463208 28.3966195 31.39463208 22.1953125 25.8828125 C20.75372046 24.29330467 19.35060603 22.66750895 18 21 C16.87618907 19.82328389 15.74668867 18.65195193 14.609375 17.48828125 C13.65131134 16.43415506 12.69799793 15.37568762 11.75 14.3125 C10.78775272 13.24492565 9.82421311 12.17851468 8.859375 11.11328125 C8.39724609 10.60104004 7.93511719 10.08879883 7.45898438 9.56103516 C5.90211116 7.89526418 4.27962692 6.31518954 2.640625 4.73046875 C0 2 0 2 0 0 Z " fill="#4F4DD8" transform="translate(188,503)"/>
<path d="M0 0 C4.73219762 -0.09927153 9.46378213 -0.17165633 14.19677734 -0.21972656 C15.80495774 -0.23977627 17.41306583 -0.26702364 19.02099609 -0.30175781 C21.3397002 -0.35057264 23.65743625 -0.37303428 25.9765625 -0.390625 C27.04567368 -0.42159271 27.04567368 -0.42159271 28.13638306 -0.45318604 C34.28277232 -0.45591586 37.65871429 1.84120995 42.0546875 5.89453125 C42.65539062 6.52746094 43.25609375 7.16039062 43.875 7.8125 C46.47314028 10.48459115 49.10460819 13.01574359 51.9375 15.4375 C56.5044305 19.37795296 61.01236682 23.46775952 65 28 C65 28.66 65 29.32 65 30 C59.98296821 30.09922625 54.96651348 30.17163587 49.94873047 30.21972656 C48.24355106 30.23978369 46.53843994 30.26703657 44.83349609 30.30175781 C42.37580476 30.35053861 39.91902634 30.37302719 37.4609375 30.390625 C36.70444916 30.41127014 35.94796082 30.43191528 35.16854858 30.45318604 C29.07467117 30.45574208 25.72433542 28.3887701 21.12890625 24.359375 C17.58693496 20.72024241 14.215524 16.98000749 10.91015625 13.125 C8.00087664 9.8885008 4.8637125 6.89277292 1.72265625 3.8828125 C0 2 0 2 0 0 Z " fill="#4E4DD8" transform="translate(93,464)"/>
<path d="M0 0 C0.76978683 0.0028299 1.53957367 0.00565979 2.33268738 0.00857544 C4.777943 0.01972093 7.22282487 0.04481469 9.66796875 0.0703125 C11.3313749 0.0803496 12.99478682 0.08947417 14.65820312 0.09765625 C18.72410112 0.11964177 22.78972169 0.15413236 26.85546875 0.1953125 C22.92412991 4.91839771 18.81142892 9.33930764 14.41796875 13.6328125 C10.12044025 17.87110265 5.98346138 22.15499733 2.125 26.8046875 C0.85546875 28.1953125 0.85546875 28.1953125 -1.14453125 29.1953125 C-3.91613751 29.28214695 -6.6622789 29.3108704 -9.43359375 29.29296875 C-10.6612294 29.29084633 -10.6612294 29.29084633 -11.91366577 29.28868103 C-14.5323245 29.2830754 -17.15089829 29.27052198 -19.76953125 29.2578125 C-21.54296752 29.25279822 -23.31640512 29.24823519 -25.08984375 29.24414062 C-29.44143907 29.23310414 -33.79297075 29.21583575 -38.14453125 29.1953125 C-32.63630834 22.71160031 -26.95023398 16.4135925 -21.14453125 10.1953125 C-20.38140625 9.37675781 -19.61828125 8.55820312 -18.83203125 7.71484375 C-18.15140625 7.00714844 -17.47078125 6.29945313 -16.76953125 5.5703125 C-16.18429688 4.95929688 -15.5990625 4.34828125 -14.99609375 3.71875 C-10.43913886 -0.03064326 -5.67677512 -0.07921171 0 0 Z " fill="#5150DB" transform="translate(227.14453125,463.8046875)"/>
<path d="M0 0 C1.15892509 0.00424484 1.15892509 0.00424484 2.34126282 0.00857544 C4.80709368 0.01976372 7.27256031 0.04486547 9.73828125 0.0703125 C11.41080204 0.08034407 13.08332853 0.08946961 14.75585938 0.09765625 C18.85430684 0.11969858 22.95248231 0.15421887 27.05078125 0.1953125 C25.69846938 3.22508679 24.19597582 5.28003863 21.8203125 7.5859375 C21.18528809 8.20952148 20.55026367 8.83310547 19.89599609 9.47558594 C19.2252002 10.1255957 18.5544043 10.77560547 17.86328125 11.4453125 C13.19677552 16.02239619 8.62464038 20.56030275 4.54296875 25.6796875 C1.41410339 28.85769734 -1.16226067 30.12265339 -5.63793945 30.53588867 C-7.05038204 30.53541824 -8.46288575 30.51873801 -9.875 30.48828125 C-10.62259079 30.48403641 -11.37018158 30.47979156 -12.14042664 30.47541809 C-14.51456607 30.45870306 -16.88783842 30.42106597 -19.26171875 30.3828125 C-20.87694081 30.36775631 -22.49217626 30.35406953 -24.10742188 30.34179688 C-28.05501863 30.3088233 -32.00197197 30.25709219 -35.94921875 30.1953125 C-34.52340095 26.93287107 -32.78842732 24.80984955 -30.24609375 22.33203125 C-29.51261719 21.60951172 -28.77914062 20.88699219 -28.0234375 20.14257812 C-27.25644531 19.39685547 -26.48945312 18.65113281 -25.69921875 17.8828125 C-20.99464952 13.28718269 -16.38598052 8.73591074 -12.24707031 3.61645508 C-8.59371166 -0.3839589 -5.0067355 -0.0689008 0 0 Z " fill="#4F4ED7" transform="translate(129.94921875,502.8046875)"/>
<path d="M0 0 C5.63941313 1.98423795 8.44649512 5.12601597 11.25 10.3125 C12.90379249 16.23858975 12.37716782 21.55368451 10.0546875 27.171875 C7.73945016 31.18495306 4.38188652 33.53937116 0 35 C-5.69734689 35.56430864 -10.12785716 35.28586378 -15 32 C-20.10051365 26.61612448 -21.47895679 21.78226432 -21.31640625 14.5 C-20.66323855 9.3391688 -18.2240488 6.10747273 -14.375 2.625 C-9.65477721 -0.60462612 -5.61486917 -0.47510431 0 0 Z " fill="#000002" transform="translate(372,491)"/>
<path d="M0 0 C5.45537429 1.91948355 8.23798635 4.94331682 11.08984375 9.890625 C13.19444665 14.76824545 12.37222263 19.82456012 10.8125 24.75 C8.14509682 29.53292984 5.06968414 32.868855 0 35 C-4.53599833 35.72106443 -8.69885845 35.50274563 -12.8125 33.375 C-17.06837496 30.20395591 -19.32775456 27.01673632 -21 22 C-21.39840094 16.12358607 -21.00010545 11.18099392 -18 6 C-12.53494066 0.1123094 -7.72141511 -0.65335051 0 0 Z " fill="#000003" transform="translate(776,491)"/>
<path d="M0 0 C4.95 0 9.9 0 15 0 C15 20.13 15 40.26 15 61 C10.05 61 5.1 61 0 61 C0 40.87 0 20.74 0 0 Z " fill="#504ADB" transform="translate(639,478)"/>
<path d="M0 0 C2.57283186 2.57283186 3.06442875 4.81683891 4.1640625 8.28515625 C4.56367187 9.53748047 4.96328125 10.78980469 5.375 12.08007812 C5.79166784 13.40755172 6.20833449 14.73502568 6.625 16.0625 C7.04894706 17.39404974 7.47342002 18.72543217 7.8984375 20.05664062 C11 29.8295835 11 29.8295835 11 31 C4.07 31 -2.86 31 -10 31 C-6.7 20.77 -3.4 10.54 0 0 Z " fill="#010004" transform="translate(879,480)"/>
<path d="M0 0 C2.75329021 1.79562405 4.52627461 3.05254922 6 6 C6.48153012 10.2535161 6.44716755 12.3220363 4.0625 15.9375 C0.48624641 18.34599732 -1.60531907 18.74203371 -5.83984375 18.48046875 C-9.50246824 17.66581629 -10.97177793 16.07504636 -13 13 C-13.69151325 8.69725091 -13.51557405 6.79054688 -11.125 3.125 C-7.54668265 -0.45331735 -4.99886778 -0.42363286 0 0 Z " fill="#514ADE" transform="translate(650,453)"/>
<path d="M0 0 C5.61 0 11.22 0 17 0 C17 25.41 17 50.82 17 77 C12.05 77 7.1 77 2 77 C2 60.17 2 43.34 2 26 C2.33 26 2.66 26 3 26 C3 42.17 3 58.34 3 75 C6.96 75 10.92 75 15 75 C15 50.91 15 26.82 15 2 C10.05 2 5.1 2 0 2 C0 1.34 0 0.68 0 0 Z " fill="#534DE2" transform="translate(606,462)"/>
<path d="M0 0 C3.65916231 0.10683686 4.19885702 0.50927103 7.25 3 C9.07667009 5.60423912 9.4868454 7.46311397 9.25 10.625 C8.70022839 13.23391616 8.06454384 14.69672986 6.625 17 C3.13800223 19.14584478 0.17605406 19.29443479 -3.8125 18.5 C-7.15488038 16.35744848 -7.70417954 14.89717502 -8.75 11.0625 C-8.81985492 7.08076972 -8.20956001 5.60730001 -5.8125 2.5 C-3.8125 0.5 -3.8125 0.5 0 0 Z " fill="#514BDE" transform="translate(824.8125,520.5)"/>
<path d="M0 0 C4.95 0 9.9 0 15 0 C15 20.13 15 40.26 15 61 C10.05 61 5.1 61 0 61 C0 40.87 0 20.74 0 0 Z M2 2 C2 20.81 2 39.62 2 59 C5.96 59 9.92 59 14 59 C14 40.19 14 21.38 14 2 C10.04 2 6.08 2 2 2 Z " fill="#635CFB" transform="translate(639,478)"/>
<path d="M0 0 C4.95 0 9.9 0 15 0 C15 2.64 15 5.28 15 8 C14.67 8 14.34 8 14 8 C14 6.02 14 4.04 14 2 C10.04 2 6.08 2 2 2 C2 20.81 2 39.62 2 59 C5.96 59 9.92 59 14 59 C13.98952637 57.91992676 13.97905273 56.83985352 13.96826172 55.72705078 C13.93211806 51.72773541 13.90912016 47.72843454 13.89013672 43.72900391 C13.88006624 41.99655735 13.86640911 40.26412784 13.84912109 38.53173828 C13.82491838 36.04455361 13.81352761 33.55759325 13.8046875 31.0703125 C13.79436493 30.29317902 13.78404236 29.51604553 13.77340698 28.71536255 C13.77300729 26.80874507 13.8776786 24.90268964 14 23 C14.66 22.34 15.32 21.68 16 21 C15.67 34.2 15.34 47.4 15 61 C10.05 61 5.1 61 0 61 C0 40.87 0 20.74 0 0 Z " fill="#5A53F1" transform="translate(670,478)"/>
<path d="M0 0 C5.40180724 4.51451958 10.45830288 9.27535841 15.4375 14.25 C16.53481445 15.32894531 16.53481445 15.32894531 17.65429688 16.4296875 C18.68973633 17.46222656 18.68973633 17.46222656 19.74609375 18.515625 C20.37185303 19.13727539 20.9976123 19.75892578 21.64233398 20.39941406 C23 22 23 22 23 24 C17.76728431 24.07403712 12.53487199 24.12854783 7.30175781 24.16479492 C5.52077933 24.17990173 3.73983816 24.20038835 1.95898438 24.22631836 C-0.59774978 24.26261943 -3.1539931 24.27970688 -5.7109375 24.29296875 C-6.50994476 24.30845261 -7.30895203 24.32393646 -8.13217163 24.33988953 C-10.37646484 24.34057617 -10.37646484 24.34057617 -14 24 C-14.66 23.01 -15.32 22.02 -16 21 C-4.45 21 7.1 21 19 21 C12.75249059 14.83165113 12.75249059 14.83165113 6.49414062 8.67431641 C5.72263672 7.90780762 4.95113281 7.14129883 4.15625 6.3515625 C3.36025391 5.56604004 2.56425781 4.78051758 1.74414062 3.97119141 C0 2 0 2 0 0 Z " fill="#5D5BF1" transform="translate(230,509)"/>
<path d="M0 0 C0.66 0 1.32 0 2 0 C3.4375 1.49609375 3.4375 1.49609375 5 3.4375 C7.14525044 6.15188238 7.14525044 6.15188238 10 8 C12.48099734 8.08649451 14.93344928 8.11565054 17.4140625 8.09765625 C18.50852188 8.09553383 18.50852188 8.09553383 19.62509155 8.09336853 C21.95843585 8.08776531 24.29168464 8.07521235 26.625 8.0625 C28.20572778 8.05748541 29.78645707 8.05292243 31.3671875 8.04882812 C35.24482854 8.03779484 39.12239807 8.02052811 43 8 C42.175 7.38125 41.35 6.7625 40.5 6.125 C39.675 5.42375 38.85 4.7225 38 4 C38 3.34 38 2.68 38 2 C41.81936528 3.55603771 44.26044438 5.95604931 47 9 C47 9.66 47 10.32 47 11 C41.98296821 11.09922625 36.96651348 11.17163587 31.94873047 11.21972656 C30.24355106 11.23978369 28.53843994 11.26703657 26.83349609 11.30175781 C24.37580476 11.35053861 21.91902634 11.37302719 19.4609375 11.390625 C18.70444916 11.41127014 17.94796082 11.43191528 17.16854858 11.45318604 C10.4996399 11.45598328 7.02335147 8.84740786 2.125 4.375 C0 2 0 2 0 0 Z " fill="#5452E1" transform="translate(111,483)"/>
<path d="M0 0 C0 3 0 3 -1.27734375 4.46484375 C-2.38136442 5.44417503 -3.48553038 6.42334254 -4.58984375 7.40234375 C-6.36859982 9.17064533 -6.36859982 9.17064533 -7 13 C1.58 13 10.16 13 19 13 C18.67 13.66 18.34 14.32 18 15 C7.77 15 -2.46 15 -13 15 C-10.96986589 10.93973179 -8.57604446 8.34542624 -5.375 5.25 C-4.859375 4.74339844 -4.34375 4.23679687 -3.8125 3.71484375 C-2.54616661 2.47196098 -1.2736856 1.23534724 0 0 Z " fill="#5C61ED" transform="translate(107,518)"/>
<path d="M0 0 C0.66 0.33 1.32 0.66 2 1 C2 12.88 2 24.76 2 37 C-1.86296561 36.0342586 -2.67347797 35.72360482 -5.25 33.0625 C-5.77078125 32.53785156 -6.2915625 32.01320313 -6.828125 31.47265625 C-8 30 -8 30 -8 28 C-7.34 28 -6.68 28 -6 28 C-4.35 29.98 -2.7 31.96 -1 34 C-0.67 22.78 -0.34 11.56 0 0 Z " fill="#554EE6" transform="translate(167,453)"/>
<path d="M0 0 C4.46570449 -0.0743839 8.93107684 -0.12871171 13.3972168 -0.16479492 C14.91518438 -0.17984353 16.43310876 -0.20028738 17.95092773 -0.22631836 C20.13796677 -0.26287653 22.32442896 -0.27976523 24.51171875 -0.29296875 C25.82615967 -0.3086792 27.14060059 -0.32438965 28.49487305 -0.34057617 C32.23370533 0.02270801 34.05373547 0.72002144 37 3 C37.66 3.99 38.32 4.98 39 6 C38.34 6.33 37.68 6.66 37 7 C37 6.34 37 5.68 37 5 C36.01 5 35.02 5 34 5 C34 4.34 34 3.68 34 3 C23.11 2.67 12.22 2.34 1 2 C0.67 1.34 0.34 0.68 0 0 Z " fill="#5C56EF" transform="translate(191,503)"/>
<path d="M0 0 C0.33 0 0.66 0 1 0 C1.33 10.56 1.66 21.12 2 32 C2.99 32.33 3.98 32.66 5 33 C3.71034824 34.37562854 2.37310707 35.70766393 1 37 C0.34 37 -0.32 37 -1 37 C-1.0246501 31.89136104 -1.04283607 26.78275641 -1.05493164 21.67407227 C-1.05997204 19.93480832 -1.0668043 18.19554864 -1.07543945 16.45629883 C-1.08751792 13.96174063 -1.09323108 11.46723827 -1.09765625 8.97265625 C-1.10281754 8.19036148 -1.10797882 7.40806671 -1.11329651 6.60206604 C-1.11349226 4.73432886 -1.06199694 2.86670796 -1 1 C-0.67 0.67 -0.34 0.34 0 0 Z " fill="#4A47C7" transform="translate(179,452)"/>
<path d="M0 0 C0.66 0 1.32 0 2 0 C3.41938438 1.76189432 4.76266543 3.58564857 6.0625 5.4375 C8.35112619 8.86518151 8.35112619 8.86518151 11 12 C13.35313555 12.07271741 15.70833668 12.08370868 18.0625 12.0625 C19.35285156 12.05347656 20.64320313 12.04445313 21.97265625 12.03515625 C22.97167969 12.02355469 23.97070312 12.01195312 25 12 C25 11.01 25 10.02 25 9 C26.37562854 10.28965176 27.70766393 11.62689293 29 13 C29 13.66 29 14.32 29 15 C12.9217084 16.93137589 12.9217084 16.93137589 8.11865234 13.75634766 C4.635426 10.33027543 2.17493192 6.34986384 0 2 C0 1.34 0 0.68 0 0 Z " fill="#554FE4" transform="translate(500,524)"/>
<path d="M0 0 C4.62 0 9.24 0 14 0 C14 0.66 14 1.32 14 2 C10.04 2 6.08 2 2 2 C2 8.6 2 15.2 2 22 C1.34 22.33 0.68 22.66 0 23 C0 15.41 0 7.82 0 0 Z " fill="#5A52EF" transform="translate(639,478)"/>
<path d="M0 0 C3.63 0 7.26 0 11 0 C10.34 1.65 9.68 3.3 9 5 C10.37492804 8.1668838 10.37492804 8.1668838 12 11 C11.67 11.66 11.34 12.32 11 13 C9.16052663 11.21427748 7.32842259 9.42197551 5.5 7.625 C4.71302734 6.86316406 4.71302734 6.86316406 3.91015625 6.0859375 C2.56846819 4.76167396 1.28004185 3.38394135 0 2 C0 1.34 0 0.68 0 0 Z " fill="#5966EA" transform="translate(93,464)"/>
<path d="M0 0 C1.47796835 5.91187342 -0.7920256 9.37970152 -3 15 C-8.61 15 -14.22 15 -20 15 C-19.34 12.69 -18.68 10.38 -18 8 C-17.34 7.67 -16.68 7.34 -16 7 C-16.33 8.65 -16.66 10.3 -17 12 C-12.71 12 -8.42 12 -4 12 C-2.68 8.04 -1.36 4.08 0 0 Z " fill="#5651E7" transform="translate(863,524)"/>
<path d="M0 0 C0.66 0 1.32 0 2 0 C2 3.3 2 6.6 2 10 C5.96 10 9.92 10 14 10 C14 10.66 14 11.32 14 12 C9.38 12 4.76 12 0 12 C0 8.04 0 4.08 0 0 Z " fill="#5853ED" transform="translate(639,527)"/>
<path d="M0 0 C0.33 0 0.66 0 1 0 C1.33 6.27 1.66 12.54 2 19 C-2.62 19 -7.24 19 -12 19 C-12 18.34 -12 17.68 -12 17 C-8.04 17 -4.08 17 0 17 C0 11.39 0 5.78 0 0 Z " fill="#5650EA" transform="translate(621,520)"/>
<path d="M0 0 C3.81936528 1.55603771 6.26044438 3.95604931 9 7 C9 7.66 9 8.32 9 9 C0.09 8.67 -8.82 8.34 -18 8 C-18 7.67 -18 7.34 -18 7 C-10.41 6.67 -2.82 6.34 5 6 C3.35 4.68 1.7 3.36 0 2 C0 1.34 0 0.68 0 0 Z " fill="#5B57EF" transform="translate(149,485)"/>
<path d="M0 0 C6.6 0 13.2 0 20 0 C18.35 1.65 16.7 3.3 15 5 C15 4.34 15 3.68 15 3 C10.05 2.67 5.1 2.34 0 2 C0 1.34 0 0.68 0 0 Z " fill="#5952ED" transform="translate(509,478)"/>
<path d="M0 0 C0.66 0.33 1.32 0.66 2 1 C-1.42820321 5.71377942 -5.56912819 9.27365378 -10 13 C-10.61101562 13.51433594 -11.22203125 14.02867187 -11.8515625 14.55859375 C-13.22967314 15.7113735 -14.61408239 16.85661797 -16 18 C-14.6415798 14.95667235 -13.11536976 12.87690849 -10.7421875 10.546875 C-10.11699219 9.928125 -9.49179688 9.309375 -8.84765625 8.671875 C-8.19667969 8.03765625 -7.54570312 7.4034375 -6.875 6.75 C-6.21628906 6.1003125 -5.55757812 5.450625 -4.87890625 4.78125 C-3.25703357 3.18288273 -1.6306719 1.58938103 0 0 Z " fill="#5B57ED" transform="translate(203,425)"/>
<path d="M0 0 C0.33 0 0.66 0 1 0 C1.33 3.63 1.66 7.26 2 11 C-2.62 11 -7.24 11 -12 11 C-12 10.34 -12 9.68 -12 9 C-8.04 9 -4.08 9 0 9 C0 6.03 0 3.06 0 0 Z " fill="#544CE7" transform="translate(552,528)"/>
<path d="M0 0 C0.99 0.33 1.98 0.66 3 1 C-0.66666667 4.66666667 -4.33333333 8.33333333 -8 12 C-8.66 11.67 -9.32 11.34 -10 11 C-8.89718873 9.72799029 -7.79269231 8.45744147 -6.6875 7.1875 C-6.07261719 6.47980469 -5.45773438 5.77210938 -4.82421875 5.04296875 C-3.26665665 3.29863261 -1.67341125 1.63221959 0 0 Z " fill="#5550E1" transform="translate(155,518)"/>
<path d="M0 0 C3.63 0 7.26 0 11 0 C11 0.33 11 0.66 11 1 C8.69 1.33 6.38 1.66 4 2 C5.65 3.98 7.3 5.96 9 8 C8.67 8.66 8.34 9.32 8 10 C6.66070495 8.71451591 5.32871357 7.42141845 4 6.125 C2.88625 5.04605469 2.88625 5.04605469 1.75 3.9453125 C0 2 0 2 0 0 Z " fill="#6482F3" transform="translate(93,464)"/>
<path d="M0 0 C1.8125 0.1875 1.8125 0.1875 4 1 C5.05771739 2.63064764 6.05273046 4.30280873 7 6 C8.29579647 7.36984198 9.61992749 8.7151049 11 10 C10.67 10.66 10.34 11.32 10 12 C8.32737283 10.38113585 6.66204463 8.7547271 5 7.125 C4.071875 6.22007812 3.14375 5.31515625 2.1875 4.3828125 C0 2 0 2 0 0 Z " fill="#5752E0" transform="translate(188,503)"/>
<path d="M0 0 C1.65 1.65 3.3 3.3 5 5 C4.67 5.99 4.34 6.98 4 8 C3.01 8.33 2.02 8.66 1 9 C-0.4783226 6.04335481 -0.06032783 3.25770263 0 0 Z " fill="#565CE4" transform="translate(141,425)"/>
<path d="M0 0 C0.66 0.33 1.32 0.66 2 1 C1.2575 1.8971875 1.2575 1.8971875 0.5 2.8125 C-1.28276418 4.97029994 -1.28276418 4.97029994 -1 8 C-1.66 8 -2.32 8 -3 8 C-3.33 8.99 -3.66 9.98 -4 11 C-4.36630156 7.06225823 -4.30233203 5.43460229 -2 2.125 C-1.34 1.42375 -0.68 0.7225 0 0 Z " fill="#5A53EE" transform="translate(641,454)"/>
<path d="M0 0 C0.33 0.99 0.66 1.98 1 3 C-0.65 4.32 -2.3 5.64 -4 7 C-4.66 6.67 -5.32 6.34 -6 6 C-4.02 4.02 -2.04 2.04 0 0 Z " fill="#5C5CE9" transform="translate(114,511)"/>
</svg>
